<?xml version="1.0" standalone="no"?>
<!DOCTYPE svg PUBLIC "-//W3C//DTD SVG 20010904//EN"
 "http://www.w3.org/TR/2001/REC-SVG-20010904/DTD/svg10.dtd">
<svg version="1.0" xmlns="http://www.w3.org/2000/svg"
 width="611.000000pt" height="653.000000pt" viewBox="0 0 611.000000 653.000000"
 preserveAspectRatio="xMidYMid meet">

<g transform="translate(0.000000,653.000000) scale(0.100000,-0.100000)"
fill="#000000" stroke="none">
<path d="M909 5583 c-255 -278 -478 -522 -495 -542 l-32 -37 69 -89 c158 -205
253 -472 280 -783 19 -211 -3 -351 -111 -712 -113 -379 -140 -524 -147 -772
-6 -204 3 -295 42 -445 97 -370 348 -692 700 -898 164 -96 239 -123 620 -221
480 -123 818 -259 950 -381 17 -15 69 -83 115 -150 46 -68 85 -122 85 -120 1
1 43 60 93 132 99 143 136 177 272 249 179 94 441 182 860 291 279 72 342 94
487 170 142 74 249 152 369 270 125 123 204 229 277 372 109 214 146 363 154
623 8 281 -18 434 -151 892 -95 328 -110 403 -110 583 0 348 102 671 286 904
l67 86 -28 30 c-15 16 -229 251 -476 520 -246 270 -457 500 -469 512 l-21 22
-99 -45 c-249 -113 -524 -183 -906 -231 -121 -15 -221 -18 -605 -18 -384 0
-484 3 -605 18 -356 45 -658 119 -868 213 -31 14 -76 34 -98 44 l-41 18 -464
-505z m793 86 c211 -63 480 -111 783 -141 203 -19 840 -16 1050 6 334 34 618
92 855 175 63 21 115 39 116 38 3 -5 -3717 -3462 -3723 -3460 -16 4 -34 112
-40 238 -10 229 18 392 141 822 97 337 117 434 123 608 12 310 -56 621 -199
904 l-67 134 51 56 c28 31 186 203 351 383 l299 326 67 -25 c36 -14 123 -43
193 -64z m2595 -600 c-4 -16 26 -54 138 -177 114 -123 142 -159 133 -169 -14
-18 4 -39 24 -27 11 7 58 7 66 -1 4 -3 -117 -119 -129 -123 -5 -2 -9 7 -9 20
0 32 -303 361 -338 368 -24 5 -21 9 42 68 37 34 69 62 73 62 3 0 3 -9 0 -21z
m-236 -58 c-8 -15 11 -87 88 -326 55 -169 105 -312 113 -316 7 -5 19 -7 26 -4
29 10 7 -17 -67 -84 -44 -39 -81 -71 -84 -71 -2 0 -2 11 1 25 5 29 21 21 -352
175 -183 75 -255 100 -275 96 -21 -5 -9 10 57 74 85 82 104 94 95 62 -2 -10 2
-24 10 -30 11 -10 411 -182 422 -182 5 0 -130 403 -144 429 -9 15 -19 21 -32
18 -34 -9 -21 10 58 82 77 72 102 87 84 52z m1124 -100 c-73 -123 -145 -322
-183 -501 -34 -156 -45 -292 -39 -455 7 -182 27 -281 131 -642 42 -144 85
-307 96 -361 105 -517 -4 -917 -336 -1231 -190 -180 -343 -256 -696 -347 -419
-107 -704 -202 -898 -299 -86 -43 -226 -133 -254 -163 -18 -21 -18 -21 -70 22
-194 157 -519 284 -1141 445 -126 32 -252 69 -279 80 l-48 21 63 59 c35 32
879 817 1874 1745 996 927 1811 1686 1812 1686 1 0 -13 -27 -32 -59z m-1767
-725 c63 -31 475 -168 493 -163 34 9 21 -9 -62 -84 -76 -68 -80 -71 -77 -44 2
23 -2 32 -22 41 -67 33 -72 31 -167 -57 -93 -87 -98 -98 -72 -161 8 -20 19
-28 38 -28 24 -1 21 -6 -42 -65 -37 -36 -71 -65 -75 -65 -5 0 -7 12 -5 28 4
28 -121 477 -139 500 -6 6 -19 12 -29 12 -32 0 -22 16 54 85 69 63 72 65 75
40 2 -15 14 -30 30 -39z m-357 -143 c52 -58 52 -58 26 -63 -24 -5 -328 -273
-327 -289 1 -3 24 -32 53 -63 l52 -58 103 96 c79 75 102 102 102 122 0 25 4
23 60 -33 58 -57 68 -78 32 -69 -11 3 -50 -25 -117 -87 -55 -50 -101 -95 -103
-100 -2 -5 34 -49 80 -99 58 -63 90 -90 106 -90 13 0 22 -4 20 -8 -4 -12 -134
-132 -142 -132 -3 0 -6 10 -6 23 0 33 -396 460 -421 454 -11 -3 -19 -2 -19 2
0 4 99 99 221 211 166 153 219 208 216 222 -9 31 9 20 64 -39z m-623 -757 c63
-31 475 -168 493 -163 34 9 21 -9 -62 -84 -76 -68 -80 -71 -77 -44 2 23 -2 32
-22 41 -67 33 -72 31 -167 -57 -93 -87 -98 -98 -72 -161 8 -20 19 -28 38 -28
24 -1 21 -6 -42 -65 -37 -36 -71 -65 -75 -65 -5 0 -7 12 -5 28 4 28 -121 477
-139 500 -6 6 -19 12 -29 12 -32 0 -22 16 54 85 69 63 72 65 75 40 2 -15 14
-30 30 -39z m-277 -460 c142 -153 206 -216 222 -216 18 -1 8 -14 -53 -72 -73
-69 -75 -70 -78 -44 -2 18 -48 74 -140 174 -75 81 -139 148 -143 150 -3 1 20
-108 52 -244 33 -136 57 -249 54 -252 -2 -3 -109 32 -237 76 -127 45 -234 80
-236 77 -2 -2 58 -71 133 -152 93 -100 145 -149 162 -151 13 -2 23 -6 21 -10
-5 -12 -124 -122 -131 -122 -4 0 -7 10 -7 23 0 33 -396 460 -421 454 -34 -9
-20 9 70 92 88 80 108 94 98 68 -3 -8 -2 -19 2 -25 8 -14 379 -147 387 -139 6
5 -82 365 -94 387 -5 8 -18 17 -30 20 -18 4 -8 17 71 90 88 80 92 83 95 58 2
-18 66 -94 203 -242z"/>
<path d="M1157 5315 l-307 -334 55 -112 c125 -255 195 -564 195 -861 0 -187
-34 -366 -130 -688 -105 -352 -129 -477 -137 -699 -5 -131 -3 -163 7 -159 15
5 3310 3071 3305 3076 -1 2 -56 -8 -121 -22 -597 -124 -1433 -127 -2052 -5
-158 31 -343 80 -442 118 -30 12 -57 21 -60 21 -3 0 -144 -151 -313 -335z"/>
<path d="M3292 3058 c-909 -848 -1651 -1543 -1648 -1545 2 -2 108 -31 235 -64
512 -132 834 -253 1041 -392 l64 -43 65 45 c196 132 538 261 1030 387 280 71
328 87 435 142 391 200 626 575 626 999 0 188 -34 369 -135 713 -119 407 -141
537 -132 784 6 168 23 288 61 431 13 47 20 85 17 84 -3 0 -750 -694 -1659
-1541z m847 -167 c87 -27 131 -63 131 -107 l0 -34 -71 0 c-65 0 -74 3 -130 40
-63 43 -64 45 -50 84 9 21 21 29 53 35 3 0 34 -8 67 -18z m-159 -12 c0 -35
-17 -55 -80 -93 -52 -31 -70 -36 -121 -36 -73 0 -77 14 -16 63 66 54 133 84
190 86 21 1 27 -4 27 -20z m-134 -241 l23 -68 -40 -67 -39 -68 -53 3 -53 4
-22 57 c-12 31 -22 63 -22 70 0 7 16 42 36 77 l36 65 56 -3 55 -3 23 -67z
m477 7 c20 -35 37 -69 37 -75 0 -6 -12 -40 -27 -75 l-28 -65 -65 0 -65 0 -42
65 c-24 36 -43 69 -43 75 0 5 12 39 26 75 l26 65 72 0 71 0 38 -65z m104 -160
c-6 -82 -47 -190 -69 -183 -7 3 -15 27 -18 54 -5 48 -3 58 45 172 8 18 21 32
31 32 15 0 16 -9 11 -75z m-337 5 c22 -33 43 -66 46 -73 3 -8 -12 -42 -32 -75
l-36 -62 -88 0 -88 0 -37 66 -37 65 42 70 41 69 74 0 74 0 41 -60z m-447 -47
c8 -27 18 -64 20 -83 l6 -35 -19 40 c-18 40 -36 125 -27 125 3 0 12 -21 20
-47z m657 -224 c-45 -41 -118 -84 -127 -76 -5 6 148 116 162 116 6 0 -10 -18
-35 -40z m-190 -14 l34 -35 -29 -30 c-26 -27 -34 -30 -89 -29 -77 1 -93 7
-141 46 l-39 33 24 25 c22 23 30 25 115 25 91 0 91 0 125 -35z"/>
<path d="M3413 4044 c39 -134 49 -164 53 -164 8 0 124 103 124 110 0 4 -37 20
-82 36 -45 16 -86 31 -91 33 -5 2 -7 -5 -4 -15z"/>
<path d="M2433 3144 c39 -134 49 -164 53 -164 8 0 124 103 124 110 0 4 -37 20
-82 36 -45 16 -86 31 -91 33 -5 2 -7 -5 -4 -15z"/>
</g>
</svg>
